<?xml version="1.0" encoding="UTF-8" standalone="no"?>
<svg
   width="104.1mm"
   height="62mm"
   viewPort="0 104.1 62"
   version="1.1"
   id="svg576"
   sodipodi:docname="label-printer.svg"
   inkscape:version="1.2.1 (9c6d41e410, 2022-07-14)"
   xml:space="preserve"
   xmlns:inkscape="http://www.inkscape.org/namespaces/inkscape"
   xmlns:sodipodi="http://sodipodi.sourceforge.net/DTD/sodipodi-0.dtd"
   xmlns="http://www.w3.org/2000/svg"
   xmlns:svg="http://www.w3.org/2000/svg"
   xmlns:xhtml="http://www.w3.org/1999/xhtml"><defs
     id="defs580"><clipPath
       clipPathUnits="userSpaceOnUse"
       id="clipPath7091"><rect
         x="-6.2034416"
         y="-4.9496536"
         width="102.38265mm"
         height="59.61919mm"
         class="label-background"
         id="rect7093"
         style="fill:#ff00ff;stroke:#666666;stroke-width:1.03952"
         sodipodi:insensitive="true"
         inkscape:label="cliprect" /></clipPath></defs><sodipodi:namedview
     id="namedview578"
     pagecolor="#ffffff"
     bordercolor="#000000"
     borderopacity="0.25"
     inkscape:showpageshadow="2"
     inkscape:pageopacity="0.0"
     inkscape:pagecheckerboard="0"
     inkscape:deskcolor="#d1d1d1"
     inkscape:document-units="mm"
     showgrid="false"
     inkscape:zoom="2.6532537"
     inkscape:cx="181.66374"
     inkscape:cy="95.919965"
     inkscape:window-width="1920"
     inkscape:window-height="1001"
     inkscape:window-x="-9"
     inkscape:window-y="-9"
     inkscape:window-maximized="1"
     inkscape:current-layer="g574" /><xhtml:link
     rel="stylesheet"
     href="style.css"
     type="text/css" /><g
     transform="translate(9.4488 9.4488)"
     class="label"
     id="g574"
     style="stroke:#666666;fill:none"><rect
       x="0"
       y="0"
       width="99.099998mm"
       height="57mm"
       class="label-background"
       id="label_border"
       style="fill:none;stroke:#666666"
       sodipodi:insensitive="true" /><path
       id="path2-6"
       style="opacity:0.6;fill:#000000;stroke:none;stroke-width:0.307164"
       d="m 337.08054,77.314091 c 2.13082,-0.0345 3.81321,1.315033 4.61558,3.702227 0.42281,1.25792 0.56557,2.513338 0.61005,3.344827 0.006,0.09827 0.0413,0.192935 0.10583,0.27471 l 4.86106,6.231765 c 1.91595,2.442899 2.44287,4.802334 1.61036,7.212917 -0.8921,2.582673 -3.35694,3.925493 -7.32529,3.989733 l -4.82877,0.0782 c -0.42969,0.007 -0.77286,0.36038 -0.7659,0.79005 l 0.27702,17.11129 c 0.006,0.36979 0.9365,1.16654 1.55237,1.69325 0.75792,0.6482 1.61666,1.38297 2.2345,2.29582 1.20511,1.78072 0.89107,4.12678 -0.73186,5.45652 -1.40678,1.15176 -3.56283,1.75882 -6.40678,1.80486 -7.80555,0.12637 -8.77233,-3.79707 -8.85699,-4.24515 l -0.0245,-0.13027 -0.19669,-12.14888 c -0.007,-0.44193 -0.37073,-0.79394 -0.81268,-0.78679 l -10.36517,0.16781 c -0.32957,0.005 -1.23141,0.94518 -1.82867,1.56774 -1.58151,1.64916 -3.85981,4.02583 -7.70758,4.70775 -0.25575,0.0456 -0.44529,0.26404 -0.44109,0.52355 l 0.0142,0.87667 c 0.003,0.20338 0.63095,0.65853 1.04534,0.96023 0.45105,0.32757 0.96243,0.69913 1.42444,1.17181 0.79469,0.81288 1.20795,1.93346 1.13424,3.07406 -0.0752,1.1637 -0.64507,2.24605 -1.56294,2.96992 -1.49995,1.18399 -3.58073,1.8057 -6.18637,1.84788 -7.41947,0.12012 -8.70426,-3.68037 -8.82649,-4.11401 l -0.0548,-0.19256 -0.35427,-21.88236 c -0.006,-0.35534 0.0187,-0.68193 0.0623,-0.97816 0.0301,-0.20702 -0.0648,-0.41107 -0.24433,-0.51755 -1.90266,-1.12886 -4.77845,-3.5114 -5.67591,-7.902473 -1.11032,-5.43275 0.20084,-8.742452 1.54993,-10.592468 0.43727,-0.599057 1.06406,-1.050206 1.79332,-1.186418 0.9758,-0.181959 1.92614,0.143407 2.57949,0.83918 l 7.96989,8.495183 c 0.19954,0.212113 0.47863,0.330458 0.76978,0.325744 l 20.87107,-0.337896 c 3.93977,-0.06378 4.71998,-3.107925 4.71032,-3.704352 -0.0258,-1.594597 -0.35289,-2.308979 -0.73123,-3.136296 -0.39269,-0.859029 -0.83772,-1.832602 -0.86475,-3.502737 -0.0624,-3.855301 2.9633,-5.151416 4.43842,-5.175298 3.44716,-0.05581 4.72129,1.669381 5.48234,2.700932 0.23127,0.319138 0.48673,0.365713 0.71517,0.01684 0.0853,-0.15676 0.16851,-0.320594 0.23866,-0.457502 0.61345,-1.196964 1.64103,-3.20002 4.12749,-3.240275 z m 0.05,3.088581 c -0.54544,0.0088 -0.82146,0.378839 -1.42778,1.561247 -0.53932,1.052309 -1.35472,2.642518 -3.195,2.672312 -1.64128,0.02657 -2.45615,-1.076178 -2.99514,-1.806587 -0.63289,-0.857607 -1.68929,-2.0554 -3.02998,-1.584249 -0.96589,0.339422 -1.33449,0.830967 -1.31459,2.174045 0.0149,1.02337 0.25558,1.545417 0.58554,2.267846 0.43408,0.948688 0.97416,2.129798 1.01045,4.371187 0.0328,2.026373 -1.73573,6.407289 -7.12062,6.811527 -0.21913,0.01686 -0.40843,0.160794 -0.46582,0.373073 -0.58667,2.168853 -3.01334,8.935267 -10.48657,9.056257 -8.1667,0.13222 -8.66434,-6.461402 -8.61598,-8.560688 0.006,-0.290696 -0.23099,-0.526843 -0.52184,-0.522134 l -2.18662,0.0354 c -0.66614,0.01078 -1.30974,-0.26138 -1.76488,-0.747058 l -7.79679,-8.310663 c -0.23822,-0.253894 -0.66094,-0.200162 -0.81841,0.110439 -0.68471,1.350799 -1.27849,3.678632 -0.52913,7.346792 0.98856,4.837512 5.22846,6.383672 5.40118,6.444762 l 1.30433,0.3829 c 0.4303,0.12637 0.58684,0.65455 0.2956,0.99567 l -0.66587,0.77527 c -0.46125,0.56072 -0.42044,0.98726 -0.40966,1.65311 l 0.34109,21.06845 c 0.28645,0.44604 1.53186,1.86468 5.7502,1.79639 2.38237,-0.0386 3.6655,-0.66506 4.32281,-1.18382 0.23145,-0.18255 0.37435,-0.45422 0.39299,-0.74454 0.0108,-0.15724 -0.009,-0.45898 -0.26067,-0.71573 -0.27959,-0.28609 -0.64504,-0.55089 -1.03113,-0.83183 -0.96647,-0.70231 -2.28905,-1.66397 -2.31731,-3.40935 l -0.0447,-2.75857 -4.7e-4,-0.30278 c -0.002,-0.70099 0.56132,-1.27227 1.26216,-1.28514 l 0.27837,-0.006 c 3.78114,-0.0701 5.75591,-2.12749 7.49816,-3.94391 1.22894,-1.28189 2.39091,-2.49322 4.00854,-2.51941 l 12.3888,-0.20057 c 1.02977,-0.0167 1.87822,0.80474 1.8949,1.83451 l 0.22315,13.78379 c 0.20572,0.37453 1.28473,1.7988 5.74909,1.72652 2.79389,-0.0452 4.01766,-0.713 4.49821,-1.10665 0.3799,-0.3115 0.43666,-0.88497 0.13235,-1.33471 -0.38397,-0.56763 -1.04424,-1.13336 -1.68376,-1.67996 -1.22086,-1.0444 -2.60502,-2.22793 -2.63355,-3.99052 l -0.12561,-7.75842 c -0.005,-0.28411 -0.18323,-0.53349 -0.44972,-0.63269 -1.02919,-0.38332 -3.30752,-1.58918 -3.35893,-4.76452 -0.0478,-2.95422 1.95411,-3.70101 3.07914,-3.88758 0.33396,-0.0551 0.57354,-0.34918 0.56806,-0.68762 l -0.0164,-1.01535 c -0.0199,-1.23249 0.96254,-2.248352 2.19502,-2.268306 l 6.46468,-0.104661 c 2.53256,-0.041 4.03143,-0.683123 4.45488,-1.908963 0.34039,-0.985193 0.47225,-2.26561 -1.12372,-4.300496 l -4.86213,-6.234762 c -0.45459,-0.582483 -0.71603,-1.277177 -0.75551,-2.008893 -0.0285,-0.523935 -0.12447,-1.549146 -0.45304,-2.527191 -0.54318,-1.615398 -1.33879,-1.602517 -1.63791,-1.597675 z m -1.58063,8.820944 c 0.85014,0.0078 1.54428,0.692344 1.55812,1.547314 0.0141,0.868546 -0.67914,1.584574 -1.5477,1.598635 -0.86853,0.01406 -1.58455,-0.679151 -1.59861,-1.547697 -0.0141,-0.868546 0.67916,-1.583535 1.54769,-1.597597 0.0133,-2.15e-4 0.0271,-7.9e-4 0.0406,-6.57e-4 z" /><path
       id="path6223-9"
       style="fill:#1a1a1a;fill-opacity:0.4;stroke:#000000;stroke-width:1.95922;stroke-dasharray:none;paint-order:fill markers stroke"
       d="m 356.74767,44.088605 -63.46778,0.513454 -20.18264,21.357985 1.33396,98.763016 63.39286,-0.71259 21.02847,-21.56249 z"
       sodipodi:nodetypes="ccccccc" /><path
       id="rect12164"
       style="opacity:1;fill:#333333;fill-opacity:0.4;stroke:none;stroke-width:1.95922;stroke-linejoin:bevel;stroke-dasharray:none;paint-order:fill markers stroke"
       d="m 180.49884,78.594235 0.35638,19.803625 h -31.98144 v 17.30287 h 32.29329 l 0.34524,19.13844 48.20301,-29.00077 z" /><text
       xml:space="preserve"
       style="font-size:18.6667px;line-height:1;font-family:'Franklin Gothic Medium';-inkscape-font-specification:'Franklin Gothic Medium, ';opacity:1;fill:#000000;fill-opacity:1;stroke:none;stroke-width:3.77953;stroke-linejoin:bevel;paint-order:fill markers stroke"
       x="188.8616"
       y="161.22202"
       id="text14336"><tspan
         sodipodi:role="line"
         id="tspan14334"
         x="188.8616"
         y="161.22202"
         style="font-size:18.6667px;text-align:center;text-anchor:middle;fill:#000000;fill-opacity:1">Front of sheet</tspan><tspan
         sodipodi:role="line"
         x="188.8616"
         y="179.88872"
         id="tspan14388"
         style="font-size:18.6667px;text-align:center;text-anchor:middle;fill:#000000;fill-opacity:1">downwards</tspan><tspan
         sodipodi:role="line"
         x="188.8616"
         y="198.55542"
         id="tspan14390"
         style="font-size:18.6667px;text-align:center;text-anchor:middle;fill:#000000;fill-opacity:1">into tray</tspan></text><text
       xml:space="preserve"
       style="font-size:18.6667px;line-height:1;font-family:'Franklin Gothic Medium';-inkscape-font-specification:'Franklin Gothic Medium, ';fill:#000000;fill-opacity:1;stroke:none;stroke-width:3.77953;stroke-linejoin:bevel;paint-order:fill markers stroke"
       x="187.56204"
       y="24.420975"
       id="text14336-1"><tspan
         sodipodi:role="line"
         id="tspan14334-2"
         x="187.56204"
         y="24.420975"
         style="font-size:18.6667px;text-align:center;text-anchor:middle;fill:#000000;fill-opacity:1">Top of sheet</tspan><tspan
         sodipodi:role="line"
         x="187.56204"
         y="43.087677"
         id="tspan14388-1"
         style="font-size:18.6667px;text-align:center;text-anchor:middle;fill:#000000;fill-opacity:1">towards</tspan><tspan
         sodipodi:role="line"
         x="187.56204"
         y="61.754375"
         id="tspan14390-8"
         style="font-size:18.6667px;text-align:center;text-anchor:middle;fill:#000000;fill-opacity:1">printer</tspan></text><g
       id="g14758"
       transform="translate(-20)"
       style="stroke:#666666;fill:none"><path
         id="path2"
         style="fill:#000000;stroke:none;stroke-width:0.307163"
         d="m 61.438421,81.234916 c -2.131095,0 -3.791425,1.376588 -4.55504,3.776466 -0.402383,1.264597 -0.524813,2.522164 -0.555834,3.354258 -0.0044,0.09836 -0.03833,0.193578 -0.101249,0.276394 l -4.759562,6.30963 c -1.876148,2.4736 -2.364792,4.84126 -1.493365,7.238046 0.933778,2.56789 3.420037,3.87062 7.388902,3.87062 h 4.829411 c 0.429721,0 0.778577,0.34784 0.778577,0.77755 v 17.11355 c 0,0.36981 -0.917498,1.18152 -1.524756,1.71814 -0.747327,0.66039 -1.594066,1.40896 -2.197032,2.33168 -1.176129,1.8 -0.824154,4.14068 0.820091,5.44397 1.425238,1.12883 3.590835,1.70092 6.435163,1.70092 7.806566,0 8.709702,-3.93858 8.787103,-4.38797 l 0.02226,-0.13068 v -12.15047 c 0,-0.44199 0.357831,-0.79984 0.799837,-0.79984 H 86.47946 c 0.329593,0 1.246543,0.92512 1.85381,1.53792 1.607999,1.62336 3.924463,3.96283 7.782746,4.58237 0.25648,0.0415 0.44953,0.2568 0.44953,0.51635 v 0.87679 c 0,0.20335 -0.62022,0.66865 -1.02967,0.97702 -0.44569,0.33482 -0.95099,0.71462 -1.40529,1.1947 -0.78142,0.82566 -1.17649,1.95278 -1.08434,3.09204 0.094,1.16232 0.68134,2.2353 1.61082,2.94422 1.51892,1.15955 3.60949,1.74749 6.215464,1.74749 7.42046,0 8.64357,-3.82079 8.75876,-4.25634 l 0.0516,-0.19338 v -21.88523 c 0,-0.35538 -0.0297,-0.68153 -0.078,-0.97702 -0.0335,-0.20642 0.058,-0.41207 0.2359,-0.52143 1.88414,-1.1595 4.72097,-3.58829 5.54724,-7.993326 1.02224,-5.45 -0.34232,-8.738045 -1.72117,-10.565975 -0.44693,-0.591907 -1.08094,-1.032845 -1.8123,-1.157236 -0.97862,-0.166143 -1.92359,0.174561 -2.56556,0.880825 l -7.83134,8.623076 c -0.19598,0.21532 -0.47322,0.33816 -0.76441,0.33816 H 79.819522 c -3.9403,0 -4.769684,-3.0311 -4.769684,-3.62761 0,-1.594808 0.315461,-2.314392 0.680376,-3.147723 0.378729,-0.865271 0.807937,-1.845923 0.807937,-3.516278 0,-3.8558 -3.046324,-5.102768 -4.521626,-5.102768 -3.447603,0 -4.693643,1.745586 -5.437896,2.789321 -0.226074,0.322845 -0.480738,0.373545 -0.714797,0.02844 -0.08788,-0.155359 -0.173527,-0.317819 -0.246026,-0.453578 -0.632758,-1.186881 -1.692622,-3.173032 -4.17942,-3.173032 z m 0,3.088989 c 0.545526,0 0.827493,0.365498 1.452876,1.537935 0.556276,1.043444 1.397309,2.620242 3.237835,2.620242 1.64148,0 2.438386,-1.115793 2.965478,-1.854835 0.618935,-0.867734 1.655816,-2.082471 3.003953,-1.633089 0.971255,0.323745 1.347767,0.809253 1.349604,2.152479 0.0018,1.023474 -0.230525,1.549356 -0.54875,2.27703 -0.418662,0.955585 -0.939554,2.145281 -0.939554,4.386967 0,2.02664 1.839228,6.378356 7.229948,6.695356 0.219308,0.0137 0.410978,0.15419 0.4718,0.3655 0.621699,2.15906 3.15759,8.8853 10.631797,8.8853 8.167778,0 8.558598,-6.60079 8.476278,-8.69902 -0.0114,-0.29055 0.22243,-0.53052 0.51331,-0.53052 h 2.186914 c 0.66624,0 1.30533,-0.28254 1.75256,-0.775536 l 7.66125,-8.435779 c 0.23406,-0.257712 0.6576,-0.210828 0.82009,0.09718 0.70648,1.339543 1.33786,3.657459 0.64797,7.337259 -0.91012,4.852896 -5.12445,6.467466 -5.29615,6.531356 l -1.29797,0.40395 c -0.42819,0.13323 -0.57616,0.66396 -0.27944,1.00032 l 0.67834,0.7644 c 0.47027,0.55318 0.43637,0.98033 0.43637,1.64625 v 21.07122 c -0.27921,0.4506 -1.50148,1.88924 -5.72037,1.88924 -2.382674,0 -3.675784,-0.60565 -4.341414,-1.1137 -0.23437,-0.17887 -0.38164,-0.44811 -0.40498,-0.73808 -0.0129,-0.15693 0.002,-0.45906 0.24906,-0.71985 0.27492,-0.29057 0.63602,-0.56126 1.01752,-0.84842 0.95497,-0.71786 2.26183,-1.7008 2.26183,-3.4464 v -2.75895 l -0.004,-0.30273 c -0.0108,-0.70095 -0.58184,-1.26302 -1.28279,-1.26454 l -0.27842,-8.9e-4 c -3.7818,-0.008 -5.789607,-2.03405 -7.56102,-3.82203 -1.24954,-1.26184 -2.430979,-2.45418 -4.048805,-2.45418 H 74.089042 c -1.029912,0 -1.864939,0.83504 -1.864939,1.86494 v 13.78559 c -0.199655,0.37782 -1.255447,1.81937 -5.720376,1.81937 -2.794264,0 -4.028698,-0.64788 -4.515549,-1.0337 -0.384876,-0.3053 -0.450919,-0.87779 -0.153901,-1.33239 0.374746,-0.57378 1.025779,-1.15012 1.656382,-1.70701 1.203775,-1.06401 2.568606,-2.26979 2.568606,-4.0326 v -7.75946 c 0,-0.28412 0.174623,-0.53637 0.439401,-0.63988 1.022855,-0.39993 3.281363,-1.64251 3.281363,-4.81827 0,-2.9546 -2.013745,-3.66888 -3.141647,-3.83721 -0.334804,-0.0497 -0.579117,-0.33985 -0.579117,-0.67835 v -1.01549 c 0,-1.23264 -0.998812,-2.23246 -2.231453,-2.23246 h -6.465547 c -2.53287,0 -4.041939,-0.61776 -4.485174,-1.8366 -0.356311,-0.97955 -0.508879,-2.257666 1.053964,-4.318116 l 4.760569,-6.31265 c 0.44508,-0.589761 0.695249,-1.288596 0.722896,-2.020855 0.01961,-0.524328 0.09937,-1.550963 0.412063,-2.534194 0.516961,-1.623983 1.312648,-1.623983 1.61183,-1.623983 z m 1.723201,8.794209 c -0.849901,0.0215 -1.532856,0.71725 -1.532856,1.57232 0,0.86867 0.704692,1.57338 1.573354,1.57338 0.868654,0 1.573354,-0.70471 1.573354,-1.57338 0,-0.86865 -0.7047,-1.57232 -1.573354,-1.57232 -0.01351,0 -0.02703,-3.6e-4 -0.04045,0 z" /><path
         id="path6223"
         style="fill:none;stroke:#000000;stroke-width:1.95922;stroke-dasharray:none;paint-order:fill markers stroke"
         d="m 41.23605,48.332143 63.46777,-0.513993 20.52573,21.028468 0.26494,98.771652 H 41.23605 Z"
         sodipodi:nodetypes="cccccc" /><path
         style="fill:#1a1a1a;fill-opacity:0.4;stroke:#000000;stroke-width:2.29474;stroke-linejoin:bevel;stroke-dasharray:none;paint-order:fill markers stroke"
         d="m 103.66706,47.81815 v 21.478963 l 21.56249,-0.450495 z"
         id="path6226"
         sodipodi:nodetypes="cccc" /></g><path
       style="fill:#ffffff;fill-opacity:1;stroke:#000000;stroke-width:2.29474;stroke-linejoin:bevel;stroke-dasharray:none;paint-order:fill markers stroke"
       d="m 358.85254,142.44798 c 0,0 -13.37579,4.19595 -22.61681,-1.56454 6.64698,9.9632 1.58834,23.12703 1.58834,23.12703 z"
       id="path6226-9"
       sodipodi:nodetypes="cccc" /><rect
       style="opacity:1;fill:#a4a4a4;fill-opacity:1;stroke:none;stroke-width:3.77953;stroke-linejoin:bevel;paint-order:fill markers stroke"
       id="rect17868"
       width="87.816704"
       height="11.683768"
       x="96.60659"
       y="304.80893"
       transform="rotate(-45.727142)" /><rect
       style="fill:#a4a4a4;fill-opacity:1;stroke:none;stroke-width:3.77953;stroke-linejoin:bevel;paint-order:fill markers stroke"
       id="rect17868-0"
       width="87.816704"
       height="11.683768"
       x="109.71913"
       y="279.65527"
       transform="rotate(-45.727142)" /></g></svg>
