<svg viewBox="-0.5 -0.5 16 16" fill="none" xmlns="http://www.w3.org/2000/svg" id="Adhesive-Plaster--Streamline-Solar.svg" height="16" width="16"><desc>Adhesive Plaster Streamline Icon: https://streamlinehq.com</desc><path fill-rule="evenodd" clip-rule="evenodd" d="M2.00825 2.00825c-1.011 1.0110062499999999 -1.011 2.6501625 0 3.66116875L9.330562500000001 12.99175c1.011 1.011 2.6501875000000004 1.011 3.6611875 0 1.011 -1.011 1.011 -2.6501875000000004 0 -3.6611875L5.66941875 2.00825c-1.0110062499999999 -1.011 -2.6501625 -1.011 -3.66116875 0Zm3.8321125 3.136025c-0.19221875 -0.19221875 -0.50386875 -0.19221875 -0.6960875 0s-0.19221875 0.50386875 0 0.6960875 0.50386875 0.19221875 0.6960875 0 0.19221875 -0.50386875 0 -0.6960875Zm1.7402000000000002 0.58006875c-0.1921875 -0.19221875 -0.5038750000000001 -0.19221875 -0.6960624999999999 0 -0.19224999999999998 0.19221875 -0.19224999999999998 0.50386875 0 0.69609375 0.1921875 0.1921875 0.5038750000000001 0.1921875 0.6960624999999999 0 0.19224999999999998 -0.192225 0.19224999999999998 -0.5038750000000001 0 -0.69609375Zm2.3203125 2.32028125c0.1921875 0.19224999999999998 0.1921875 0.5038750000000001 0 0.6961249999999999 -0.19224999999999998 0.1921875 -0.5038750000000001 0.1921875 -0.6960624999999999 0 -0.19224999999999998 -0.19224999999999998 -0.19224999999999998 -0.5038750000000001 0 -0.6961249999999999 0.1921875 -0.1921875 0.5038125 -0.1921875 0.6960624999999999 0Zm0.5800625 2.4363125c0.19224999999999998 -0.1921875 0.19224999999999998 -0.5038750000000001 0 -0.6960624999999999 -0.1921875 -0.19224999999999998 -0.5038750000000001 -0.19224999999999998 -0.6960624999999999 0 -0.19224999999999998 0.1921875 -0.19224999999999998 0.5038750000000001 0 0.6960624999999999 0.1921875 0.19224999999999998 0.5038750000000001 0.19224999999999998 0.6960624999999999 0ZM8.160625 8.160625c0.19224999999999998 -0.1921875 0.19224999999999998 -0.5038125 0 -0.6960624999999999 -0.1921875 -0.1921875 -0.5038125 -0.1921875 -0.6960624999999999 0 -0.1921875 0.19224999999999998 -0.1921875 0.5038750000000001 0 0.6960624999999999 0.19224999999999998 0.19224999999999998 0.5038750000000001 0.19224999999999998 0.6960624999999999 0Zm0.580125 1.0441875c0.1921875 0.1921875 0.1921875 0.5038125 0 0.6960624999999999 -0.19224999999999998 0.1921875 -0.5038750000000001 0.1921875 -0.6961249999999999 0 -0.1921875 -0.19224999999999998 -0.1921875 -0.5038750000000001 0 -0.6960624999999999 0.19224999999999998 -0.19224999999999998 0.5038750000000001 -0.19224999999999998 0.6961249999999999 0Zm-3.01640625 -2.3203125c0.19221875 -0.19224999999999998 0.50386875 -0.19224999999999998 0.69609375 0 0.1921875 0.1921875 0.1921875 0.5038750000000001 0 0.6960624999999999 -0.192225 0.19224999999999998 -0.5038750000000001 0.19224999999999998 -0.69609375 0 -0.19221875 -0.1921875 -0.19221875 -0.5038750000000001 0 -0.6960624999999999Z" fill="#000000" stroke-width="1"></path><path d="M3.175925 8.1629375 2.00825 9.330562500000001c-1.011 1.011 -1.011 2.6501875000000004 0 3.6611875 1.0110062499999999 1.011 2.6501625 1.011 3.66116875 0l1.16764375 -1.1676875 -3.6611375 -3.661125Z" fill="#000000" stroke-width="1"></path><path d="m11.8240625 6.8370625 1.1676875 -1.16764375c1.011 -1.0110062499999999 1.011 -2.6501625 0 -3.66116875 -1.011 -1.011 -2.6501875000000004 -1.011 -3.6611875 0l-1.1676250000000001 1.167675 3.661125 3.6611375Z" fill="#000000" stroke-width="1"></path></svg>