<svg xmlns="http://www.w3.org/2000/svg" fill="none" viewBox="-0.5 -0.5 24 24" id="Apparel--Streamline-Sharp-Material.svg" height="24" width="24"><desc>Apparel Streamline Icon: https://streamlinehq.com</desc><path fill="#000000" d="m5.989583333333334 9.367708333333335 -2.2999952083333337 1.2937500000000002 -2.44375 -4.216666666666667L7.355208333333334 2.875h2.1083333333333334v0.9343750000000001c0 0.6069460416666667 0.19166666666666668 1.1020833333333333 0.575 1.4854166666666668 0.38333333333333336 0.38333333333333336 0.87845625 0.575 1.4854166666666668 0.575 0.6069604166666667 0 1.09810625 -0.19166666666666668 1.4734375000000002 -0.575 0.37533125 -0.38333333333333336 0.5630208333333334 -0.878470625 0.5630208333333334 -1.4854166666666668V2.875h2.1083333333333334l6.109375 3.5697916666666667 -2.5395833333333333 4.3125 -2.3 -1.4375V20.125H5.989583333333334V9.367708333333335Zm1.4375 -2.44375V18.6875h8.073958333333334V6.923958333333333l3.3062500000000004 1.8447916666666668 1.078125 -1.8687500000000001 -4.480208333333334 -2.5635416666666666h-0.43125c-0.12779375 0.8625 -0.5071020833333334 1.5732479166666669 -1.1380208333333335 2.1322916666666667s-1.4015625 0.8385416666666667 -2.3119791666666667 0.8385416666666667c-0.9104166666666667 0 -1.685085416666667 -0.2794979166666667 -2.323958333333333 -0.8385416666666667 -0.6388729166666667 -0.5590437500000001 -1.0222062500000002 -1.2697916666666667 -1.15 -2.1322916666666667h-0.43125L3.138546458333334 6.9l1.078125 1.8687500000000001L7.427083333333334 6.923958333333333Z" stroke-width="1"></path></svg>