<svg viewBox="-0.5 -0.5 16 16" fill="none" xmlns="http://www.w3.org/2000/svg" id="Atom--Streamline-Iconoir.svg" height="16" width="16"><desc>Atom Streamline Icon: https://streamlinehq.com</desc><path d="M1.7740624999999999 8.7136875c-0.6703125 -0.350625 -1.0586875 -0.7670625 -1.0586875 -1.213625 0 -1.2490625 3.0375625 -2.2615625 6.784625 -2.2615625 3.7470625 0 6.784625 1.0125000000000002 6.784625 2.2615625 0 0.5385625 -0.5648124999999999 1.033125 -1.5076875 1.421625" stroke="#000000" stroke-linecap="round" stroke-linejoin="round" stroke-width="1"></path><path d="m7.5 6.753749999999999 0.0075625 -0.008375" stroke="#000000" stroke-linecap="round" stroke-linejoin="round" stroke-width="1"></path><path d="M11.180812499999998 2.9770000000000003c-0.0035625 -0.7711875 -0.198125 -1.3169374999999999 -0.600875 -1.522125 -1.1129375 -0.5670625 -3.394125 1.67975 -5.09525 5.018375000000001 -1.701125 3.338625 -2.178 6.504875 -1.0651249999999999 7.0718749999999995 0.397625 0.2025625 0.944375 0.046 1.5604375000000001 -0.3911875" stroke="#000000" stroke-linecap="round" stroke-linejoin="round" stroke-width="1"></path><path d="M5.691437499999999 1.6589999999999998c-0.4978125 -0.290875 -0.9375625 -0.37449999999999994 -1.271875 -0.204125 -1.112875 0.5670625 -0.636 3.7331874999999997 1.0650625 7.0718749999999995 1.7011875 3.338625 3.9823125 5.5854375 5.0951875 5.0184375 0.98925 -0.5040625 0.7224375 -3.0616250000000003 -0.5438125 -5.9685" stroke="#000000" stroke-linecap="round" stroke-linejoin="round" stroke-width="1"></path></svg>