<svg xmlns="http://www.w3.org/2000/svg" viewBox="-0.5 -0.5 16 16" id="Award--Streamline-Font-Awesome.svg" height="16" width="16"><desc>Award Streamline Icon: https://streamlinehq.com</desc><!--! Font Awesome Free 6.5.2 by @fontawesome - https://fontawesome.com License - https://fontawesome.com/license/free (Icons: CC BY 4.0, Fonts: SIL OFL 1.1, Code: MIT License) Copyright 2024 Fonticons, Inc.--><path d="M6.977160156249999 0.30718359375c0.31580078125 -0.209578125 0.7292109375 -0.209578125 1.04501171875 0l0.51101953125 0.33589453125c0.17225390625 0.11196484374999999 0.37321484374999997 0.16651171874999998 0.5770507812500001 0.15502734375l0.6115039062500001 -0.0373203125c0.37895703125 -0.02296875 0.73494921875 0.18373828125000002 0.9043320312500001 0.52250390625l0.275609375 0.54834375c0.0918671875 0.18373828125000002 0.24115234375 0.33015234375 0.42201953124999997 0.42201953124999997l0.5540859375 0.27848046875c0.33876562499999996 0.16938281249999998 0.54547265625 0.525375 0.52250390625 0.9043320312500001l-0.0373203125 0.6115039062500001c-0.011484375 0.20383203125 0.043062500000000004 0.40766796875 0.15502734375 0.5770507812500001l0.33876562499999996 0.51101953125c0.209578125 0.31580078125 0.209578125 0.7292109375 0 1.04501171875l-0.33876562499999996 0.5138906249999999c-0.11196484374999999 0.17225390625 -0.16651171874999998 0.37321484374999997 -0.15502734375 0.5770507812500001l0.0373203125 0.6115039062500001c0.02296875 0.37895703125 -0.18373828125000002 0.73494921875 -0.52250390625 0.9043320312500001l-0.54834375 0.275609375c-0.18373828125000002 0.0918671875 -0.33015234375 0.24115234375 -0.42202343750000004 0.42201953124999997l-0.27847656249999997 0.5540859375c-0.16938281249999998 0.33876562499999996 -0.525375 0.54547265625 -0.9043320312500001 0.52250390625l-0.6115039062500001 -0.0373203125c-0.2038359375 -0.011484375 -0.40766796875 0.043062500000000004 -0.5770507812500001 0.15502734375l-0.5110234375 0.33876562499999996c-0.31579687500000003 0.209578125 -0.72920703125 0.209578125 -1.0450078125 0l-0.5138906249999999 -0.33876562499999996c-0.17225390625 -0.11196484374999999 -0.37321875 -0.16651171874999998 -0.5770507812500001 -0.15502734375l-0.6115039062500001 0.0373203125c-0.37895703125 0.02296875 -0.73494921875 -0.18373828125000002 -0.9043320312500001 -0.52250390625l-0.275609375 -0.54834375c-0.0918671875 -0.18373828125000002 -0.24115625000000002 -0.33015234375 -0.42201953124999997 -0.42202343750000004l-0.5540859375 -0.27847656249999997c-0.33876562499999996 -0.16938281249999998 -0.54547265625 -0.525375 -0.52250390625 -0.9043320312500001l0.0373203125 -0.6115039062500001c0.011484375 -0.20383203125 -0.043062500000000004 -0.40766796875 -0.15502734375 -0.5770507812500001l-0.33589453125 -0.5138906249999999c-0.209578125 -0.31580078125 -0.209578125 -0.7292109375 0 -1.04501171875l0.33589453125 -0.51101953125c0.11196484374999999 -0.17225390625 0.16651171874999998 -0.37321875 0.15502734375 -0.5770507812500001l-0.0373203125 -0.6115039062500001c-0.02296875 -0.37895703125 0.18373828125000002 -0.73494921875 0.52250390625 -0.9043320312500001l0.54834375 -0.275609375c0.183734375 -0.09473828125 0.33302343749999996 -0.24402734375 0.424890625 -0.42776171874999996l0.275609375 -0.54834375c0.16938281249999998 -0.33876562499999996 0.525375 -0.54547265625 0.9043320312500001 -0.52250390625l0.6115039062500001 0.0373203125c0.20383203125 0.011484375 0.40766796875 -0.043062500000000004 0.5770507812500001 -0.15502734375l0.5138906249999999 -0.33589453125Zm2.8192265625 5.35423046875c0 -1.768015625 -1.91393359375 -2.8730273437499996 -3.44508203125 -1.98901953125 -0.710609375 0.41026953125 -1.148359375 1.16848046875 -1.148359375 1.98901953125 0 1.76801953125 1.91393359375 2.87303125 3.44508203125 1.9890234374999998 0.710609375 -0.4102734375 1.148359375 -1.16848046875 1.148359375 -1.9890234374999998ZM2.02485546875 12.832929687500002l1.237359375 -2.9426718750000003c0.00573828125 0.00287109375 0.008609375 0.00573828125 0.01148046875 0.01148046875l0.275609375 0.54834375c0.33589453125 0.66605078125 1.0335234375 1.07084765625 1.77995703125 1.02778515625l0.6115039062500001 -0.03732421875c0.0057421875 0 0.01435546875 0 0.02009765625 0.0057421875l0.51101953125 0.33876562499999996c0.1464140625 0.09474218749999999 0.3014453125 0.16938281249999998 0.46221484375000005 0.22105859374999998l-1.0794609375 2.5637187500000005c-0.06602734375 0.15789843750000002 -0.2124453125 0.26412109375 -0.381828125 0.27847656249999997s-0.33302343749999996 -0.06316015625 -0.42489453125 -0.206703125l-0.9244296875000001 -1.41535546875 -1.610578125 0.23828515625000002c-0.16364062499999998 0.02296484375 -0.32728124999999997 -0.04306640625 -0.4306328125 -0.17225390625s-0.12344921874999999 -0.3071875 -0.060289062500000004 -0.45934765624999996Zm7.11983984375 1.73402734375L8.065234375 12.006113281249998c0.16076953125000001 -0.0516796875 0.31579687500000003 -0.12344921874999999 0.46221484375000005 -0.2210625l0.51101953125 -0.33876562499999996c0.0057421875 -0.00287109375 0.011484375 -0.0057421875 0.02009765625 -0.0057421875l0.6115039062500001 0.03732421875c0.74643359375 0.043062500000000004 1.4440625000000002 -0.36173437500000005 1.77995703125 -1.02778515625l0.275609375 -0.54834375c0.00287109375 -0.00573828125 0.00573828125 -0.008609375 0.01148046875 -0.01148046875l1.24023046875 2.9426757812499997c0.06316015625 0.15215625 0.0401953125 0.32728124999999997 -0.060289062500000004 0.45934375s-0.2669921875 0.19808984375000002 -0.4306328125 0.17225390625l-1.610578125 -0.23828515625000002 -0.9244296875000001 1.412484375c-0.09187109375000001 0.143546875 -0.25551171875 0.22105859374999998 -0.42489453125 0.206703125s-0.31580078125 -0.1234453125 -0.38183203125000004 -0.27847656249999997Z" fill="#000000" stroke-width="1"></path></svg>