<svg xmlns="http://www.w3.org/2000/svg" viewBox="-0.5 -0.5 16 16" fill="#000000" id="Bathtub--Streamline-Phosphor.svg" height="16" width="16"><desc>Bathtub Streamline Icon: https://streamlinehq.com</desc><path d="M14.359998046875 5.785013671875h-1.95999609375c0 -0.27062109375 -0.219380859375 -0.490001953125 -0.490001953125 -0.490001953125h-3.9199980468750004c-0.27062109375 0 -0.490001953125 0.219380859375 -0.490001953125 0.490001953125H3.580001953125V3.0900117187499996c0 -0.40593164062500003 0.329068359375 -0.735 0.735 -0.735 0.3547265625 -0.001453125 0.663533203125 0.2420859375 0.744796875 0.587384765625 0.07864453125000001 0.36891796875 0.52715625 0.514353515625 0.807322265625 0.26178515625000004 0.127447265625 -0.11488476562500001 0.1855078125 -0.28806445312499995 0.153076171875 -0.456556640625 -0.171486328125 -0.80370703125 -0.883412109375 -1.37677734375 -1.7051953125000001 -1.3726113281249999 -0.94716796875 0 -1.71500390625 0.767830078125 -1.71500390625 1.7149980468750001v2.6950019531250002H0.6400019531250001c-0.27063281250000004 -0.00001171875 -0.490001953125 0.21936914062500001 -0.490001953125 0.48999609375000003v2.45000390625c0.00202734375 1.8934921875000001 1.5365039062499999 3.42796875 3.430001953125 3.4299960937500003v0.98000390625c0.00041015625 0.377197265625 0.409001953125 0.6125039062500001 0.735462890625 0.42354492187500004 0.15117773437499998 -0.08750390625 0.244341796875 -0.24887109375 0.24453515625 -0.42354492187500004v-0.98000390625h5.88v0.98000390625c0.00041015625 0.377197265625 0.409001953125 0.6125039062500001 0.735462890625 0.42354492187500004 0.15117773437499998 -0.08750390625 0.24434765625000002 -0.24887109375 0.24453515625 -0.42354492187500004v-0.98000390625c1.893498046875 -0.00202734375 3.427974609375 -1.5365039062499999 3.430001953125 -3.4299960937500003v-2.45000390625c0 -0.270615234375 -0.219380859375 -0.48999609375000003 -0.490001953125 -0.48999609375000003Zm-2.94 0.48999609375000003v1.960001953125h-2.94v-1.960001953125Zm2.45000390625 2.45000390625c0 1.35309375 -1.096904296875 2.449998046875 -2.45000390625 2.449998046875H3.580001953125c-1.353099609375 0 -2.45000390625 -1.096904296875 -2.45000390625 -2.449998046875v-1.960001953125H7.5v1.960001953125c0 0.27062695312499996 0.21937500000000001 0.49000781250000003 0.490001953125 0.48999609375000003h3.9199980468750004c0.27062695312499996 0.00001171875 0.490001953125 -0.21936914062500001 0.490001953125 -0.48999609375000003v-1.960001953125h1.47Z" stroke-width="1"></path></svg>