<svg viewBox="-0.5 -0.5 16 16" fill="none" xmlns="http://www.w3.org/2000/svg" id="Battery-Indicator--Streamline-Iconoir.svg" height="16" width="16"><desc>Battery Indicator Streamline Icon: https://streamlinehq.com</desc><path d="M8.867437500000001 8.18375h2.7348749999999997" stroke="#000000" stroke-linecap="round" stroke-linejoin="round" stroke-width="1"></path><path d="M3.3976875 8.18375h1.3674374999999999m1.3674374999999999 0H4.765125m0 0v-1.3675000000000002m0 1.3675000000000002v1.3674374999999999" stroke="#000000" stroke-linecap="round" stroke-linejoin="round" stroke-width="1"></path><path d="M3.3976875 4.0813749999999995H1.073c-0.2265625 0 -0.4101875 0.1836875 -0.4101875 0.41025v7.3841875c0 0.2265625 0.183625 0.41025 0.4101875 0.41025h12.854000000000001c0.2265625 0 0.4101875 -0.1836875 0.4101875 -0.41025V4.491625c0 -0.2265625 -0.183625 -0.41025 -0.4101875 -0.41025h-2.3246875m-8.204625 0V2.7139375h1.3674374999999999v1.3674374999999999m-1.3674374999999999 0h1.3674374999999999m0 0h5.4697499999999994m0 0V2.7139375h1.3674374999999999v1.3674374999999999m-1.3674374999999999 0h1.3674374999999999" stroke="#000000" stroke-linecap="round" stroke-linejoin="round" stroke-width="1"></path></svg>