<svg viewBox="-0.5 -0.5 16 16" fill="none" xmlns="http://www.w3.org/2000/svg" id="Birthday-Cake--Streamline-Iconoir.svg" height="16" width="16"><desc>Birthday Cake Streamline Icon: https://streamlinehq.com</desc><path d="M2.03025 10.576749999999999v2.3930000000000002c0 0.75525 0.6121875 1.3674374999999999 1.3674374999999999 1.3674374999999999h8.204625c0.75525 0 1.3674374999999999 -0.6121875 1.3674374999999999 -1.3674374999999999v-2.3930000000000002" stroke="#000000" stroke-linecap="round" stroke-linejoin="round" stroke-width="1"></path><path d="M1.3464999999999998 8.867437500000001V8.18375c0 -0.75525 0.61225 -1.3675000000000002 1.3674374999999999 -1.3675000000000002h9.572125c0.75525 0 1.3674374999999999 0.61225 1.3674374999999999 1.3675000000000002v0.6836875" stroke="#000000" stroke-linecap="round" stroke-linejoin="round" stroke-width="1"></path><path d="M7.5 4.765125v2.051125" stroke="#000000" stroke-linecap="round" stroke-linejoin="round" stroke-width="1"></path><path d="M7.5 4.765125c0.863125 0 1.3674374999999999 -0.6619375 1.3674374999999999 -1.79475S7.5 0.6628125 7.5 0.6628125 6.1325625 1.8375 6.1325625 2.970375 6.636875 4.765125 7.5 4.765125Z" stroke="#000000" stroke-linecap="round" stroke-linejoin="round" stroke-width="1"></path><path d="M5.4488125 8.867437500000001c0 1.132875 -0.9183125000000001 2.0511874999999997 -2.051125 2.0511874999999997s-2.0511874999999997 -0.9183125000000001 -2.0511874999999997 -2.0511874999999997" stroke="#000000" stroke-linecap="round" stroke-linejoin="round" stroke-width="1"></path><path d="M9.551187500000001 8.867437500000001c0 1.132875 -0.9183125000000001 2.0511874999999997 -2.0511874999999997 2.0511874999999997s-2.0511874999999997 -0.9183125000000001 -2.0511874999999997 -2.0511874999999997" stroke="#000000" stroke-linecap="round" stroke-linejoin="round" stroke-width="1"></path><path d="M13.653500000000001 8.867437500000001c0 1.132875 -0.9183125000000001 2.0511874999999997 -2.0511874999999997 2.0511874999999997s-2.051125 -0.9183125000000001 -2.051125 -2.0511874999999997" stroke="#000000" stroke-linecap="round" stroke-linejoin="round" stroke-width="1"></path></svg>