<svg xmlns="http://www.w3.org/2000/svg" viewBox="-0.5 -0.5 16 16" fill="#000000" id="Blade--Streamline-Tabler-Filled.svg" height="16" width="16"><desc>Blade Streamline Icon: https://streamlinehq.com</desc><path d="M7.24125 1.875a1.25 1.25 0 0 1 1.7674999999999998 0l0.36624999999999996 0.365625 0.36624999999999996 -0.365625a1.25 1.25 0 0 1 1.6875 -0.07312500000000001l0.08 0.07312500000000001L13.125 3.49125a1.25 1.25 0 0 1 0 1.7674999999999998L12.758750000000001 5.625l0.36624999999999996 0.36624999999999996a1.25 1.25 0 0 1 0 1.7674999999999998L7.75875 13.125a1.25 1.25 0 0 1 -1.7674999999999998 0L5.625 12.758750000000001 5.25875 13.125a1.25 1.25 0 0 1 -1.7674999999999998 0L1.875 11.508750000000001a1.25 1.25 0 0 1 0 -1.7674999999999998l0.365625 -0.36687499999999995L1.875 9.00875a1.25 1.25 0 0 1 -0.07312500000000001 -1.6875L1.875 7.2406250000000005zm1.8918750000000002 2.63125a0.625 0.625 0 0 0 -0.8250000000000001 0.935625l0.1825 0.18312499999999998 -0.6675 0.666875a1.251875 1.251875 0 0 0 -1.57 1.115L6.25 7.5l0.003125 0.09375c0.00625 0.078125 0.01875 0.155 0.03875 0.229375L5.625 8.490625000000001l-0.18312499999999998 -0.1825 -0.05875 -0.051875000000000004a0.625 0.625 0 0 0 -0.8250000000000001 0.935625l0.1825 0.18312499999999998 -0.1825 0.18312499999999998 -0.051875000000000004 0.05875a0.625 0.625 0 0 0 0.935625 0.8250000000000001L5.625 10.259374999999999l0.18312499999999998 0.1825 0.05875 0.051875000000000004a0.625 0.625 0 0 0 0.8250000000000001 -0.935625L6.5093749999999995 9.375l0.668125 -0.666875a1.251875 1.251875 0 0 0 1.530625 -1.53125L9.375 6.5093749999999995l0.18312499999999998 0.1825 0.05875 0.051875000000000004a0.625 0.625 0 0 0 0.8250000000000001 -0.935625L10.259374999999999 5.625l0.1825 -0.18312499999999998 0.051875000000000004 -0.05875a0.625 0.625 0 0 0 -0.935625 -0.8250000000000001L9.375 4.740625l-0.18312499999999998 -0.1825z" stroke-width="1"></path></svg>