<svg xmlns="http://www.w3.org/2000/svg" fill="none" viewBox="-0.5 -0.5 24 24" id="Cable--Streamline-Sharp-Material.svg" height="24" width="24"><desc>Cable Streamline Icon: https://streamlinehq.com</desc><path fill="#000000" d="M2.875 18.208333333333336v-4.3125h1.9166666666666667V6.46875c0 -1.0222062500000002 0.37533125 -1.8767377083333334 1.1260416666666668 -2.5635416666666666C6.668418750000001 3.218404375 7.570833333333334 2.875 8.625 2.875c1.00625 0 1.8567708333333335 0.34739583333333335 2.5515625 1.0421875C11.871354166666666 4.611979166666667 12.21875 5.4625 12.21875 6.46875v10.0625c0 0.6069604166666667 0.20762291666666668 1.1180395833333334 0.6229166666666667 1.5333333333333334 0.41529375 0.41529375 0.9263729166666667 0.6229166666666667 1.5333333333333334 0.6229166666666667 0.6548770833333334 0 1.2178979166666668 -0.20364583333333333 1.6890625000000001 -0.6109375C16.535227083333332 17.669270833333336 16.770833333333336 17.154166666666665 16.770833333333336 16.53125V9.104166666666668h-1.9166666666666667v-4.3125h0.9583333333333334V2.875h3.354166666666667v1.9166666666666667h0.9583333333333334v4.3125h-1.9166666666666667v7.427083333333334c0 1.0222062500000002 -0.37533125 1.8767520833333335 -1.1260416666666668 2.5635416666666666C16.331581250000003 19.78158125 15.429166666666669 20.125 14.375 20.125c-1.00625 0 -1.8567708333333335 -0.34739583333333335 -2.5515625 -1.0421875 -0.6947916666666667 -0.6947916666666667 -1.0421875 -1.5453125 -1.0421875 -2.5515625v-10.0625c0 -0.6069604166666667 -0.20762291666666668 -1.1180395833333334 -0.6229166666666667 -1.5333333333333334C9.743039583333335 4.520137291666667 9.231960416666666 4.3125 8.625 4.3125c-0.6548770833333334 0 -1.2178979166666668 0.20364583333333333 -1.6890625000000001 0.6109375C6.464772916666667 5.330729166666667 6.229166666666667 5.845833333333333 6.229166666666667 6.46875V13.895833333333334h1.9166666666666667v4.3125h-0.9583333333333334v1.9166666666666667H3.8333333333333335v-1.9166666666666667H2.875Z" stroke-width="1"></path></svg>