<svg xmlns="http://www.w3.org/2000/svg" fill="none" viewBox="-0.5 -0.5 24 24" id="Candle--Streamline-Sharp-Material.svg" height="24" width="24"><desc>Candle Streamline Icon: https://streamlinehq.com</desc><path fill="#000000" d="M5.75 19.645833333333336h11.5c0.40729166666666666 0 0.7486979166666667 -0.13776041666666666 1.0242187500000002 -0.41328125000000004C18.549739583333334 18.95703125 18.6875 18.615625 18.6875 18.208333333333336v-0.4791666666666667H4.3125v0.4552083333333333c0 0.41414375 0.13776041666666666 0.7612520833333334 0.41328125000000004 1.0412291666666667 0.2755208333333333 0.28016875 0.6169270833333333 0.4202291666666667 1.0242187500000002 0.4202291666666667Zm5.726041666666666 -11.979166666666668c-0.7347062500000001 0 -1.3536458333333334 -0.2595645833333333 -1.8567708333333335 -0.7786458333333334 -0.503125 -0.5190812499999999 -0.7546875 -1.146022916666667 -0.7546875 -1.8807291666666666 0 -0.8625 0.2755208333333333 -1.6131960416666669 0.8265625000000001 -2.2520833333333337C10.2421875 2.1163210416666667 10.845122916666666 1.5173627083333334 11.5 0.9583333333333334c0.5909562500000001 0.6069460416666667 1.1779354166666667 1.221875 1.7609375 1.8447916666666668 0.5830020833333333 0.6229166666666667 0.8744791666666667 1.3576372916666668 0.8744791666666667 2.2041666666666666 0 0.7347062500000001 -0.2595645833333333 1.3616479166666666 -0.7786458333333334 1.8807291666666666S12.210747916666667 7.666666666666667 11.476041666666667 7.666666666666667Zm-1.4375 8.625H12.9375V10.0625h-2.8989583333333333v6.229166666666667ZM11.5 6.229166666666667c0.31946041666666664 0 0.5989583333333334 -0.11083125 0.8385416666666667 -0.3325416666666667 0.23958333333333334 -0.22151875000000001 0.359375 -0.4923437500000001 0.359375 -0.8124270833333334 0 -0.41863354166666666 -0.12640416666666665 -0.7833560416666667 -0.37926041666666666 -1.0941770833333335C12.06565625 3.679041666666667 11.792770833333334 3.379241458333334 11.5 3.090625c-0.2927708333333333 0.2886164583333334 -0.5656562500000001 0.5884166666666667 -0.81865625 0.8993958333333334 -0.25285625 0.3108210416666667 -0.37926041666666666 0.6755435416666666 -0.37926041666666666 1.0941770833333335 0 0.3200833333333334 0.11979166666666667 0.5909083333333334 0.359375 0.8124270833333334 0.23958333333333334 0.2217104166666667 0.5190812499999999 0.3325416666666667 0.8385416666666667 0.3325416666666667Zm8.097916666666666 10.0625c0.27154375000000003 0 0.5071020833333334 -0.09981041666666668 0.7067708333333333 -0.2994791666666667 0.19966875 -0.19966875 0.2994791666666667 -0.4352270833333334 0.2994791666666667 -0.7067708333333333 0 -0.27154375000000003 -0.09981041666666668 -0.503125 -0.2994791666666667 -0.6947916666666667 -0.19966875 -0.19166666666666668 -0.4352270833333334 -0.2875 -0.7067708333333333 -0.2875 -0.27154375000000003 0 -0.5071020833333334 0.09583333333333334 -0.7067708333333333 0.2875 -0.19966875 0.19166666666666668 -0.2994791666666667 0.42324791666666667 -0.2994791666666667 0.6947916666666667s0.09981041666666668 0.5071020833333334 0.2994791666666667 0.7067708333333333c0.19966875 0.19966875 0.4352270833333334 0.2994791666666667 0.7067708333333333 0.2994791666666667ZM17.25 21.083333333333336H5.75c-0.7986270833333334 0 -1.4774289583333335 -0.2794979166666667 -2.0364583333333335 -0.8385416666666667C3.154512291666667 19.685747916666667 2.875 18.998958333333334 2.875 18.184375000000003V16.291666666666668h5.726041666666666V8.625H14.375v7.666666666666667h2.994791666666667c-0.07987708333333333 -0.15970625 -0.13574791666666666 -0.32343750000000004 -0.16770833333333332 -0.49114583333333334 -0.031960416666666665 -0.16770833333333332 -0.04791666666666667 -0.33939375000000005 -0.04791666666666667 -0.5151041666666667 0 -0.6746666666666666 0.23958333333333334 -1.2466479166666669 0.71875 -1.7158958333333334 0.4791666666666667 -0.46924791666666665 1.0541666666666667 -0.7038958333333334 1.725 -0.7038958333333334s1.2458333333333333 0.23464791666666668 1.725 0.7038958333333334c0.4791666666666667 0.46924791666666665 0.71875 1.0412291666666667 0.71875 1.7158958333333334 0 0.5909562500000001 -0.1796875 1.1060604166666668 -0.5390625 1.5453125 -0.359375 0.4392520833333333 -0.8185604166666667 0.7227270833333334 -1.3776041666666667 0.8505208333333333V18.208333333333336c0 0.7986270833333334 -0.2794979166666667 1.4774145833333334 -0.8385416666666667 2.0364583333333335S18.048627083333333 21.083333333333336 17.25 21.083333333333336Z" stroke-width="1"></path></svg>