<svg xmlns="http://www.w3.org/2000/svg" viewBox="-0.5 -0.5 16 16" fill="#000000" id="Coin--Streamline-Phosphor.svg" height="16" width="16"><desc>Coin Streamline Icon: https://streamlinehq.com</desc><path d="M12.7224375 3.2895C11.362031250000001 2.609625 9.55603125 2.25 7.5 2.25s-3.8620312500000002 0.359625 -5.2224375 1.0395S0.15 4.9261875 0.15 5.925000000000001v3.15c0 0.9988124999999999 0.7756875 1.95890625 2.1275625000000002 2.6355S5.44396875 12.75 7.5 12.75s3.8620312500000002 -0.359625 5.2224375 -1.0395S14.85 10.0738125 14.85 9.075v-3.15c0 -0.9988124999999999 -0.7756875 -1.95890625 -2.1275625000000002 -2.6355ZM7.5 3.3c4.11075 0 6.3 1.52446875 6.3 2.625s-2.18925 2.625 -6.3 2.625 -6.3 -1.52446875 -6.3 -2.625S3.38925 3.3 7.5 3.3Zm-0.525 6.2908125v2.1c-1.2468750000000002 -0.0406875 -2.296875 -0.2244375 -3.15 -0.49153125V9.14390625c1.028431640625 0.27400195312500003 2.0859375 0.42403124999999997 3.15 0.44690625Zm1.05 0c1.0640625 -0.022875000000000003 2.121568359375 -0.172904296875 3.15 -0.44690625v2.05471875c-0.853125 0.26709374999999996 -1.9031249999999997 0.45084375 -3.15 0.49153125ZM1.2 9.075v-1.21209375c0.330392578125 0.27424804687500004 0.69209765625 0.508412109375 1.0775625 0.69759375 0.15946875 0.07940625 0.328125 0.15421875000000002 0.4974375 0.22509375V10.78125c-1.03884375 -0.5145 -1.575 -1.16221875 -1.575 -1.70625ZM12.225 10.78125v-1.99565625c0.17128125 -0.070875 0.33796875 -0.1456875 0.4974375 -0.22509375 0.38546484375 -0.18918164062499998 0.747169921875 -0.42334570312500003 1.0775625 -0.69759375V9.075c0 0.5440312500000001 -0.53615625 1.19175 -1.575 1.70625Z" stroke-width="1"></path></svg>