<svg xmlns="http://www.w3.org/2000/svg" viewBox="-0.5 -0.5 16 16" fill="#000000" id="Cylinder--Streamline-Phosphor.svg" height="16" width="16"><desc>Cylinder Streamline Icon: https://streamlinehq.com</desc><path d="M7.5 0.9375c-2.3654296875 0 -4.21875 1.1326171875 -4.21875 2.578125v7.96875c0 1.4455078125 1.8533203125 2.578125 4.21875 2.578125s4.21875 -1.1326171875 4.21875 -2.578125V3.515625c0 -1.4455078125 -1.8533203125 -2.578125 -4.21875 -2.578125Zm0 0.9375c1.5521484374999999 0 3.28125 0.673828125 3.28125 1.640625s-1.7291015625000001 1.640625 -3.28125 1.640625 -3.28125 -0.673828125 -3.28125 -1.640625 1.7291015625000001 -1.640625 3.28125 -1.640625Zm0 11.25c-1.7478515625 0 -3.28125 -0.76640625 -3.28125 -1.640625V5.15625c0.767578125 0.5771484375 1.941796875 0.9375 3.28125 0.9375s2.513671875 -0.36328125 3.28125 -0.9375v6.328125c0 0.87421875 -1.5333984375 1.640625 -3.28125 1.640625Z" stroke-width="1"></path></svg>