<svg xmlns="http://www.w3.org/2000/svg" viewBox="-0.5 -0.5 16 16" id="Display--Streamline-Font-Awesome.svg" height="16" width="16"><desc>Display Streamline Icon: https://streamlinehq.com</desc><!--! Font Awesome Free 6.5.2 by @fontawesome - https://fontawesome.com License - https://fontawesome.com/license/free (Icons: CC BY 4.0, Fonts: SIL OFL 1.1, Code: MIT License) Copyright 2024 Fonticons, Inc.--><path d="M1.7833333333333332 0.9666666666666666c-0.9008854166666667 0 -1.633333333333333 0.7324479166666666 -1.633333333333333 1.633333333333333v7.35c0 0.9008854166666667 0.7324479166666666 1.633333333333333 1.633333333333333 1.633333333333333h4.491666666666666l-0.27307291666666667 0.8166666666666665H4.233333333333333c-0.45171874999999995 0 -0.8166666666666665 0.3649479166666666 -0.8166666666666665 0.8166666666666665s0.3649479166666666 0.8166666666666665 0.8166666666666665 0.8166666666666665h6.533333333333332c0.45171874999999995 0 0.8166666666666665 -0.3649479166666666 0.8166666666666665 -0.8166666666666665s-0.3649479166666666 -0.8166666666666665 -0.8166666666666665 -0.8166666666666665h-1.76859375L8.725 11.583333333333332h4.491666666666666c0.9008854166666667 0 1.633333333333333 -0.7324479166666666 1.633333333333333 -1.633333333333333V2.5999999999999996c0 -0.9008854166666667 -0.7324479166666666 -1.633333333333333 -1.633333333333333 -1.633333333333333H1.7833333333333332Zm11.433333333333334 1.633333333333333v7.35H1.7833333333333332V2.5999999999999996h11.433333333333334Z" fill="#000000" stroke-width="1"></path></svg>