<svg xmlns="http://www.w3.org/2000/svg" viewBox="-0.5 -0.5 16 16" fill="#000000" id="Egg-Crack--Streamline-Phosphor.svg" height="16" width="16"><desc>Egg Crack Streamline Icon: https://streamlinehq.com</desc><path d="M11.3495625 3.008625C10.15584375 1.21903125 8.7166875 0.15 7.5 0.15S4.844156249999999 1.21903125 3.6504375000000002 3.008625C2.4271875 4.8448125 1.725 7.05571875 1.725 9.075c0 4.445595703125 4.8124980468750005 7.22409375 8.6625 5.001298828125 1.78679296875 -1.031607421875 2.8875 -2.93808984375 2.8875 -5.001298828125 0 -2.01928125 -0.7021875 -4.2301874999999995 -1.9254375 -6.066375ZM7.5 13.8c-2.60834765625 -0.00289453125 -4.72210546875 -2.11665234375 -4.725 -4.725 0 -1.81715625 0.637875 -3.81609375 1.7495625000000001 -5.483625C5.47809375 2.16075 6.673781249999999 1.2 7.5 1.2c0.6234375000000001 0 1.4568750000000001 0.54665625 2.2378125 1.4293125L7.10625 5.57521875c-0.26306250000000003 0.294017578125 -0.11997656250000001 0.7622753906249999 0.2625 0.85903125l1.614375 0.40359375 -0.4265625 2.134125c-0.056736328125000006 0.284115234375 0.127412109375 0.560484375 0.41146875 0.61753125 0.035185546875 0.007259765625 0.071044921875 0.010775390625 0.10696874999999999 0.0105 0.249873046875 -0.000451171875 0.464806640625 -0.176953125 0.51384375 -0.42196875l0.525 -2.625c0.054978515625 -0.2747109375 -0.1154296875 -0.544189453125 -0.38718749999999996 -0.61228125l-1.257375 -0.31434375 1.92478125 -2.15578125c0.0275625 0.040031250000000004 0.054468749999999996 0.08006250000000001 0.081375 0.12075C11.587125 5.25890625 12.225 7.25784375 12.225 9.075c-0.00289453125 2.60834765625 -2.11665234375 4.72210546875 -4.725 4.725Z" stroke-width="1"></path></svg>