<svg id="Ethernet-Port--Streamline-Atlas.svg" xmlns="http://www.w3.org/2000/svg" viewBox="-0.5 -0.5 16 16" height="16" width="16"><desc>Ethernet Port Streamline Icon: https://streamlinehq.com</desc><defs></defs><path d="M2.13125 0.9375h10.7375s1.1937499999999999 0 1.1937499999999999 1.1937499999999999v10.7375s0 1.1937499999999999 -1.1937499999999999 1.1937499999999999H2.13125s-1.1937499999999999 0 -1.1937499999999999 -1.1937499999999999V2.13125s0 -1.1937499999999999 1.1937499999999999 -1.1937499999999999" fill="none" stroke="#000000" stroke-miterlimit="10" stroke-width="1"></path><path d="m3.325 3.9187499999999997 0 4.7749999999999995 1.1937499999999999 0 0 1.1937499999999999 1.7874999999999999 0 0 1.1937499999999999 2.3874999999999997 0 0 -1.1937499999999999 1.7874999999999999 0 0 -1.1937499999999999 1.1937499999999999 0 0 -4.7749999999999995 -8.35 0z" fill="none" stroke="#000000" stroke-miterlimit="10" stroke-width="1"></path><path d="m5.1125 5.7125 0 -1.7937500000000002" fill="none" stroke="#000000" stroke-miterlimit="10" stroke-width="1"></path><path d="m7.5 5.7125 0 -1.7937500000000002" fill="none" stroke="#000000" stroke-miterlimit="10" stroke-width="1"></path><path d="m9.8875 5.7125 0 -1.7937500000000002" fill="none" stroke="#000000" stroke-miterlimit="10" stroke-width="1"></path></svg>