<svg xmlns="http://www.w3.org/2000/svg" fill="none" viewBox="-0.5 -0.5 24 24" id="Euro--Streamline-Sharp-Material.svg" height="24" width="24"><desc>Euro Streamline Icon: https://streamlinehq.com</desc><path fill="#000000" d="M14.375 20.125c-1.8367895833333334 0 -3.533854166666667 -0.5390625 -5.091145833333334 -1.6171875s-2.615435416666667 -2.53560625 -3.174479166666667 -4.372395833333334H2.875v-1.4375h2.9468750000000004c-0.06387291666666667 -0.44720625 -0.09185625000000001 -0.84654375 -0.08385416666666666 -1.1979166666666667 0.008002083333333333 -0.35137291666666665 0.0359375 -0.7507104166666667 0.08385416666666666 -1.1979166666666667H2.875v-1.4375h3.234375c0.5590437500000001 -1.8367895833333334 1.6171875 -3.2942708333333335 3.174479166666667 -4.372395833333334S12.538210416666667 2.875 14.375 2.875c1.1020833333333333 0 2.13626875 0.18767520833333334 3.1026041666666666 0.5630208333333334C18.443939583333336 3.8133664583333333 19.326372916666667 4.360416666666667 20.125 5.079166666666667l-1.0302083333333334 1.00625c-0.6548770833333334 -0.575 -1.3895833333333334 -1.0142520833333333 -2.2041666666666666 -1.3177083333333335C16.076041666666665 4.464237708333334 15.2375 4.3125 14.375 4.3125c-1.5013729166666667 0 -2.8710229166666665 0.41927083333333337 -4.108854166666666 1.2578125 -1.23783125 0.8385416666666667 -2.1123104166666664 1.9366479166666666 -2.6234375 3.2942708333333335H14.375v1.4375H7.283333333333333c-0.07987708333333333 0.43125 -0.11979166666666667 0.8305395833333334 -0.11979166666666667 1.1979166666666667 0 0.36737708333333335 0.03991458333333334 0.7666666666666667 0.11979166666666667 1.1979166666666667H14.375v1.4375H7.642708333333333c0.5111270833333333 1.3576229166666667 1.3856062500000002 2.455729166666667 2.6234375 3.2942708333333335C11.503977083333334 18.268229166666668 12.873627083333334 18.6875 14.375 18.6875c0.84654375 0 1.6770833333333335 -0.14375 2.4916666666666667 -0.43125 0.8145833333333333 -0.2875 1.5652937500000002 -0.7347062500000001 2.2520833333333337 -1.3416666666666666l1.00625 1.00625c-0.70279375 0.6708333333333333 -1.5572916666666667 1.2059187500000002 -2.5635416666666666 1.6052083333333333 -1.00625 0.39928958333333336 -2.06841875 0.5989583333333334 -3.186458333333334 0.5989583333333334Z" stroke-width="1"></path></svg>