<svg xmlns="http://www.w3.org/2000/svg" fill="#000000" class="bi bi-gender-trans" viewBox="0 0 16 16" id="Gender-Trans--Streamline-Bootstrap.svg" height="16" width="16"><desc>Gender Trans Streamline Icon: https://streamlinehq.com</desc><path fill-rule="evenodd" d="M0 0.5A0.5 0.5 0 0 1 0.5 0h3a0.5 0.5 0 0 1 0 1H1.707L3.5 2.793l0.646 -0.647a0.5 0.5 0 1 1 0.708 0.708l-0.647 0.646 0.822 0.822A4 4 0 0 1 8 3c1.18 0 2.239 0.51 2.971 1.322L14.293 1H11.5a0.5 0.5 0 0 1 0 -1h4a0.5 0.5 0 0 1 0.5 0.5v4a0.5 0.5 0 0 1 -1 0V1.707l-3.45 3.45A4 4 0 0 1 8.5 10.97V13H10a0.5 0.5 0 0 1 0 1H8.5v1.5a0.5 0.5 0 0 1 -1 0V14H6a0.5 0.5 0 0 1 0 -1h1.5v-2.03a4 4 0 0 1 -3.05 -5.814l-0.95 -0.949 -0.646 0.647a0.5 0.5 0 1 1 -0.708 -0.708l0.647 -0.646L1 1.707V3.5a0.5 0.5 0 0 1 -1 0zm5.49 4.856a3 3 0 1 0 5.02 3.288 3 3 0 0 0 -5.02 -3.288" stroke-width="1"></path></svg>