<svg xmlns="http://www.w3.org/2000/svg" viewBox="-0.5 -0.5 16 16" fill="none" stroke="#000000" stroke-linecap="round" stroke-linejoin="round" id="Glasses--Streamline-Lucide.svg" height="16" width="16"><desc>Glasses Streamline Icon: https://streamlinehq.com</desc><path d="M1.25 9.375a2.5 2.5 0 1 0 5 0 2.5 2.5 0 1 0 -5 0" stroke-width="1"></path><path d="M8.75 9.375a2.5 2.5 0 1 0 5 0 2.5 2.5 0 1 0 -5 0" stroke-width="1"></path><path d="M8.75 9.375a1.25 1.25 0 0 0 -1.25 -1.25 1.25 1.25 0 0 0 -1.25 1.25" stroke-width="1"></path><path d="M1.5625 8.125 3.125 4.375c0.4375 -0.8125 0.875 -1.25 1.875 -1.25" stroke-width="1"></path><path d="M13.4375 8.125 11.875 4.375c-0.4375 -0.8125 -0.9375 -1.25 -1.875 -1.25" stroke-width="1"></path></svg>