<svg xmlns="http://www.w3.org/2000/svg" fill="none" viewBox="-0.5 -0.5 24 24" id="Handyman--Streamline-Rounded-Material.svg" height="24" width="24"><desc>Handyman Streamline Icon: https://streamlinehq.com</desc><path fill="#000000" d="M18.304166666666667 21.083333333333336c-0.09583333333333334 0 -0.18366458333333333 -0.01595625 -0.2635416666666667 -0.04791666666666667 -0.07987708333333333 -0.031960416666666665 -0.15970625 -0.08783125 -0.23958333333333334 -0.16770833333333332l-5.797916666666667 -5.797916666666667c-0.07987708333333333 -0.07987708333333333 -0.13574791666666666 -0.15970625 -0.16770833333333332 -0.23958333333333334 -0.031960416666666665 -0.07987708333333333 -0.04791666666666667 -0.16770833333333332 -0.04791666666666667 -0.2635416666666667 0 -0.09583333333333334 0.01595625 -0.18366458333333333 0.04791666666666667 -0.2635416666666667 0.031960416666666665 -0.07987708333333333 0.08783125 -0.15970625 0.16770833333333332 -0.23958333333333334l2.0364583333333335 -2.0364583333333335c0.07987708333333333 -0.07987708333333333 0.15970625 -0.13574791666666666 0.23958333333333334 -0.16770833333333332 0.07987708333333333 -0.031960416666666665 0.16770833333333332 -0.04791666666666667 0.2635416666666667 -0.04791666666666667 0.09583333333333334 0 0.18366458333333333 0.01595625 0.2635416666666667 0.04791666666666667 0.07987708333333333 0.031960416666666665 0.15970625 0.08783125 0.23958333333333334 0.16770833333333332l5.797916666666667 5.797916666666667c0.07987708333333333 0.07987708333333333 0.13574791666666666 0.15970625 0.16770833333333332 0.23958333333333334 0.031960416666666665 0.07987708333333333 0.04791666666666667 0.16770833333333332 0.04791666666666667 0.2635416666666667 0 0.09583333333333334 -0.01595625 0.18366458333333333 -0.04791666666666667 0.2635416666666667 -0.031960416666666665 0.07987708333333333 -0.08783125 0.15970625 -0.16770833333333332 0.23958333333333334l-2.0364583333333335 2.0364583333333335c-0.07987708333333333 0.07987708333333333 -0.15970625 0.13574791666666666 -0.23958333333333334 0.16770833333333332 -0.07987708333333333 0.031960416666666665 -0.16770833333333332 0.04791666666666667 -0.2635416666666667 0.04791666666666667Zm0 -1.725 1.0302083333333334 -1.0302083333333334 -4.791666666666667 -4.791666666666667 -1.0302083333333334 1.0302083333333334 4.791666666666667 4.791666666666667ZM4.671875 21.083333333333336c-0.09583333333333334 0 -0.18767520833333334 -0.01595625 -0.2755208333333333 -0.04791666666666667 -0.087845625 -0.031960416666666665 -0.17169979166666666 -0.08783125 -0.2515625 -0.16770833333333332l-2.0125 -2.0125c-0.07986270833333334 -0.07987708333333333 -0.13576229166666667 -0.16373125 -0.16770833333333332 -0.2515625 -0.03194604166666667 -0.08783125 -0.04791666666666667 -0.1796875 -0.04791666666666667 -0.2755208333333333 0 -0.09583333333333334 0.015970625 -0.18366458333333333 0.04791666666666667 -0.2635416666666667 0.03194604166666667 -0.07987708333333333 0.087845625 -0.15970625 0.16770833333333332 -0.23958333333333334L7.522916666666666 12.434375h2.0364583333333335l0.9104166666666667 -0.9104166666666667 -4.192708333333334 -4.192708333333334h-1.365625L1.9166666666666667 4.336458333333334 4.288541666666666 1.9645833333333333l2.994791666666667 2.994791666666667v1.365625l4.192708333333334 4.192708333333334 3.1145833333333335 -3.1145833333333335 -1.6052083333333333 -1.6052083333333333 1.3416666666666666 -1.3416666666666666h-2.707291666666667l-0.43125 -0.43125 3.066666666666667 -3.066666666666667 0.43125 0.43125v2.707291666666667l1.3416666666666666 -1.3416666666666666 4.048958333333333 4.048958333333333c0.23958333333333334 0.23958333333333334 0.4272729166666667 0.5151041666666667 0.5630208333333334 0.8265625000000001 0.13574791666666666 0.31145833333333334 0.20364583333333333 0.6428979166666666 0.20364583333333333 0.9942708333333334 0 0.31946041666666664 -0.051893749999999995 0.62689375 -0.15572916666666667 0.9223958333333334S20.436458333333334 10.110416666666667 20.244791666666668 10.350000000000001L18.208333333333336 8.313541666666667l-1.3416666666666666 1.3416666666666666 -1.2458333333333333 -1.2458333333333333L10.565625 13.464583333333335v2.0125L5.175000000000001 20.867708333333333c-0.07987708333333333 0.07987708333333333 -0.15970625 0.13574791666666666 -0.23958333333333334 0.16770833333333332 -0.07987708333333333 0.031960416666666665 -0.16770833333333332 0.04791666666666667 -0.2635416666666667 0.04791666666666667Zm0 -1.725 4.791666666666667 -4.791666666666667v-1.0302083333333334H8.433333333333334l-4.791666666666667 4.791666666666667 1.0302083333333334 1.0302083333333334Zm0 0L3.6416666666666666 18.328125l0.5270833333333333 0.503125 0.503125 0.5270833333333333Z" stroke-width="1"></path></svg>