<svg id="Keyboard--Streamline-Atlas.svg" xmlns="http://www.w3.org/2000/svg" viewBox="-0.5 -0.5 16 16" height="16" width="16"><desc>Keyboard Streamline Icon: https://streamlinehq.com</desc><defs></defs><path d="M2.20775 6.030625H12.792250000000001S13.969000000000001 6.030625 13.969000000000001 7.207375000000001V13.084875S13.969000000000001 14.261625 12.792250000000001 14.261625H2.20775S1.031 14.261625 1.031 13.084875V7.207375000000001S1.031 6.030625 2.20775 6.030625" fill="none" stroke="#000000" stroke-miterlimit="10" stroke-width="1"></path><path d="M5.1465000000000005 11.9143125H9.8535" fill="none" stroke="#000000" stroke-miterlimit="10" stroke-width="1"></path><path d="M3.3844999999999996 10.1523125H4.56125" fill="none" stroke="#000000" stroke-miterlimit="10" stroke-width="1"></path><path d="M5.7379999999999995 10.1523125H6.914687499999999" fill="none" stroke="#000000" stroke-miterlimit="10" stroke-width="1"></path><path d="M8.0853125 10.1523125H9.262" fill="none" stroke="#000000" stroke-miterlimit="10" stroke-width="1"></path><path d="M10.43875 10.1523125H11.6155" fill="none" stroke="#000000" stroke-miterlimit="10" stroke-width="1"></path><path d="M3.3844999999999996 8.384125000000001H4.56125" fill="none" stroke="#000000" stroke-miterlimit="10" stroke-width="1"></path><path d="M5.7379999999999995 8.384125000000001H6.914687499999999" fill="none" stroke="#000000" stroke-miterlimit="10" stroke-width="1"></path><path d="M8.0853125 8.384125000000001H9.262" fill="none" stroke="#000000" stroke-miterlimit="10" stroke-width="1"></path><path d="M10.43875 8.384125000000001H11.6155" fill="none" stroke="#000000" stroke-miterlimit="10" stroke-width="1"></path><path d="M5.1465000000000005 6.030625V2.5065625000000002C5.1465000000000005 1.8566250000000002 5.673375 1.3298125 6.32325 1.3298125C6.9745625 1.3263749999999999 7.5034374999999995 1.8552499999999998 7.5 2.5065625000000002C7.5 3.1564375 8.0268125 3.6833125 8.67675 3.6833125C9.32525 3.6799375000000003 9.850125 3.1550624999999997 9.8535 2.5065625000000002V0.738375" fill="none" stroke="#000000" stroke-miterlimit="10" stroke-width="1"></path></svg>