<svg xmlns="http://www.w3.org/2000/svg" viewBox="-0.5 -0.5 16 16" fill="#000000" id="Marker-Circle--Streamline-Phosphor.svg" height="16" width="16"><desc>Marker Circle Streamline Icon: https://streamlinehq.com</desc><path d="M12.697119140624999 2.302880859375C8.696373046875001 -1.697859375 1.86498046875 0.132609375 0.40060546874999997 5.597724609375c-0.6796171875 2.5363652343750003 0.045527343750000004 5.242640625 1.9022753906249998 7.09939453125 4.00074609375 4.000740234375001 10.832138671875 2.1702714843749997 12.296513671875001 -3.29484375 0.6796171875 -2.5363652343750003 -0.045527343750000004 -5.242640625 -1.9022753906249998 -7.09939453125ZM4.673173828125 13.03845703125v-2.1462656250000003h5.65365234375v2.1462656250000003c-1.7766796875 0.901751953125 -3.87697265625 0.901751953125 -5.65365234375 0Zm1.13073046875 -4.4077265625h3.39219140625v1.13073046875H5.803904296874999ZM6.793294921875 7.5 7.5 4.10780859375 8.206705078125001 7.5Zm5.1038320312500005 4.397830078125c-0.14133984375 0.14133984375 -0.28833984375 0.273498046875 -0.4395703125 0.39858398437500003v-1.40422265625c0 -0.62446875 -0.506267578125 -1.13070703125 -1.13073046875 -1.13073046875v-1.13073046875c-0.0007148437500000001 -0.5587089843749999 -0.409388671875 -1.03313671875 -0.9618281249999999 -1.11659765625l-0.758296875 -3.636708984375c-0.17848828125 -0.8519414062499999 -1.212298828125 -1.191181640625 -1.86085546875 -0.610634765625 -0.179595703125 0.160763671875 -0.3031171875 0.37471875 -0.352546875 0.610634765625l-0.758296875 3.636708984375c-0.552439453125 0.08346093750000001 -0.96111328125 0.557888671875 -0.9618281249999999 1.11659765625v1.13073046875c-0.6245039062500001 -0.000029296875 -1.13073046875 0.5062265625 -1.13073046875 1.13073046875v1.40422265625c-0.15123046874999999 -0.1250859375 -0.298224609375 -0.25723828125000003 -0.4395703125 -0.39858398437500003 -3.385494140625 -3.384908203125 -1.83716015625 -9.165380859375 2.7870058593750002 -10.404849609374999 4.624166015625 -1.239474609375 8.85603515625 2.991662109375 7.617369140625 7.6160390625000005 -0.28255078125 1.054845703125 -0.837873046875 2.016697265625 -1.61012109375 2.788810546875Z" stroke-width="1"></path></svg>