<svg xmlns="http://www.w3.org/2000/svg" fill="none" viewBox="0 0 24 24" id="Passports--Streamline-Guidance-Free.svg" height="24" width="24"><desc>Passports Streamline Icon: https://streamlinehq.com</desc><path stroke="#000000" d="M18.5 5.5h2l0 18h-17l0 -20c8.5 -1 14.75 -3 14.75 -3l0.25 0 0 5Zm0 0L6 5.5m10.5 9A4.5 4.5 0 0 0 12 10m4.5 4.5A4.5 4.5 0 0 1 12 19m4.5 -4.5c-0.5 0.5 -2 1 -4.5 1s-4 -0.5 -4.5 -1M12 10a4.5 4.5 0 0 0 -4.5 4.5M12 10c0.966 0 1.75 2.015 1.75 4.5S12.966 19 12 19m0 -9c-0.966 0 -1.75 2.015 -1.75 4.5S11.034 19 12 19m-4.5 -4.5A4.5 4.5 0 0 0 12 19" stroke-width="1"></path></svg>