<svg viewBox="-0.5 -0.5 16 16" fill="none" xmlns="http://www.w3.org/2000/svg" id="Pills-2--Streamline-Solar.svg" height="16" width="16"><desc>Pills 2 Streamline Icon: https://streamlinehq.com</desc><path d="M7.5163125 6.2284C7.898874999999999 5.7098625 8.125 5.0688375 8.125 4.375c0 -1.7258875000000002 -1.399125 -3.125 -3.125 -3.125 -0.6938374999999999 0 -1.3348625 0.22611875 -1.8534000000000002 0.6086875l4.3697124999999994 4.3697124999999994Z" fill="#000000" stroke-width="1"></path><path d="M6.853375000000001 6.8913125C6.334875 7.273874999999999 5.6938375 7.5 5 7.5c-1.7258875000000002 0 -3.125 -1.3991124999999998 -3.125 -3.125 0 -0.6938374999999999 0.22611875 -1.3348625 0.6086875 -1.8534000000000002l4.3696875 4.3697124999999994Z" fill="#000000" stroke-width="1"></path><path d="M13.714875 10.15625c-0.09612499999999999 -0.6371875 -0.38949999999999996 -1.2503125000000002 -0.8801249999999999 -1.7409374999999998 -1.2204375 -1.2204375 -3.1990625 -1.2204375 -4.4194375 0 -0.49062500000000003 0.49062500000000003 -0.784 1.10375 -0.8801249999999999 1.7409374999999998h6.1796875Z" fill="#000000" stroke-width="1"></path><path d="M13.714875 11.09375h-6.1796875c0.09612499999999999 0.6371875 0.38949999999999996 1.2503125000000002 0.8801249999999999 1.7409374999999998 1.220375 1.2204375 3.1990000000000003 1.2204375 4.4194375 0 0.49062500000000003 -0.49062500000000003 0.784 -1.10375 0.8801249999999999 -1.7409374999999998Z" fill="#000000" stroke-width="1"></path></svg>