<svg xmlns="http://www.w3.org/2000/svg" viewBox="-0.5 -0.5 16 16" id="Question--Streamline-Font-Awesome.svg" height="16" width="16"><desc>Question Streamline Icon: https://streamlinehq.com</desc><!--! Font Awesome Free 6.5.2 by @fontawesome - https://fontawesome.com License - https://fontawesome.com/license/free (Icons: CC BY 4.0, Fonts: SIL OFL 1.1, Code: MIT License) Copyright 2024 Fonticons, Inc.--><path d="M4.875 4.35c0 -1.15828125 0.9417187499999999 -2.0999999999999996 2.0999999999999996 -2.0999999999999996h1.0499999999999998c1.15828125 0 2.0999999999999996 0.9417187499999999 2.0999999999999996 2.0999999999999996v0.11812500000000001c0 0.7153125 -0.36421875 1.38140625 -0.9646874999999999 1.7653124999999998l-1.3846875 0.88921875c-0.826875 0.5315624999999999 -1.325625 1.44703125 -1.325625 2.4281249999999996v0.049218750000000006c0 0.58078125 0.46921875 1.0499999999999998 1.0499999999999998 1.0499999999999998s1.0499999999999998 -0.46921875 1.0499999999999998 -1.0499999999999998v-0.0459375c0 -0.2690625 0.1378125 -0.5184375 0.3609375 -0.6628125l1.3846875 -0.88921875c1.2009375 -0.774375 1.9293749999999998 -2.1032812499999998 1.9293749999999998 -3.5339062500000002V4.35c0 -2.31984375 -1.88015625 -4.199999999999999 -4.199999999999999 -4.199999999999999h-1.0499999999999998c-2.31984375 0 -4.199999999999999 1.88015625 -4.199999999999999 4.199999999999999 0 0.58078125 0.46921875 1.0499999999999998 1.0499999999999998 1.0499999999999998S4.875 4.93078125 4.875 4.35Zm2.625 10.5c1.0103625 0 1.6418390625 -1.0937484375 1.1366578125 -1.96875 -0.23445468749999998 -0.4060875 -0.6677484375 -0.65625 -1.1366578125 -0.65625 -1.0103625 0 -1.6418390625 1.0937484375 -1.1366578125 1.96875 0.23445468749999998 0.4060875 0.6677484375 0.65625 1.1366578125 0.65625Z" fill="#000000" stroke-width="1"></path></svg>