<svg xmlns="http://www.w3.org/2000/svg" viewBox="-0.5 -0.5 16 16" fill="none" stroke="#000000" stroke-linecap="round" stroke-linejoin="round" id="Recycle--Streamline-Lucide.svg" height="16" width="16"><desc>Recycle Streamline Icon: https://streamlinehq.com</desc><path d="M4.375 11.875H3.0093750000000004a1.14375 1.14375 0 0 1 -0.9812500000000001 -0.550625 1.1156249999999999 1.1156249999999999 0 0 1 -0.0025 -1.115L4.4975 5.9375" stroke-width="1"></path><path d="M6.875 11.875h5.126875a1.14375 1.14375 0 0 0 0.9725 -0.55625 1.115 1.115 0 0 0 0 -1.109375l-0.76625 -1.3250000000000002" stroke-width="1"></path><path d="m8.75 10 -1.875 1.875 1.875 1.875" stroke-width="1"></path><path d="M5.1831249999999995 8.4975 4.4975 5.9375 1.9375 6.62375" stroke-width="1"></path><path d="m5.84 3.631875 0.683125 -1.1824999999999999A1.14375 1.14375 0 0 1 7.490625 1.875a1.115 1.115 0 0 1 0.96625 0.555l2.464375 4.276875" stroke-width="1"></path><path d="m8.36125 6.020624999999999 2.56 0.68625 0.6856249999999999 -2.56" stroke-width="1"></path></svg>