<svg xmlns="http://www.w3.org/2000/svg" fill="none" viewBox="-0.5 -0.5 24 24" id="Severe-Cold-Fill--Streamline-Outlined-Fill-Material.svg" height="24" width="24"><desc>Severe Cold Fill Streamline Icon: https://streamlinehq.com</desc><path fill="#000000" d="M19.40625 9.34375c-0.19166666666666668 0 -0.359375 -0.071875 -0.503125 -0.215625 -0.14375 -0.14375 -0.215625 -0.31145833333333334 -0.215625 -0.503125 0 -0.20762291666666668 0.071875 -0.37935625 0.215625 -0.5151041666666667 0.14375 -0.13574791666666666 0.31145833333333334 -0.20364583333333333 0.503125 -0.20364583333333333 0.20762291666666668 0 0.37935625 0.06789791666666667 0.5151041666666667 0.20364583333333333S20.125 8.417377083333333 20.125 8.625c0 0.19166666666666668 -0.06789791666666667 0.359375 -0.20364583333333333 0.503125 -0.13574791666666666 0.14375 -0.30748125000000004 0.215625 -0.5151041666666667 0.215625ZM9.583333333333334 21.083333333333336v-3.785416666666667l-2.73125 2.73125 -1.00625 -1.00625 3.7375000000000003 -3.7375000000000003V13.416666666666668h-1.8687500000000001l-3.7375000000000003 3.7375000000000003 -1.00625 -1.00625 2.73125 -2.73125H1.9166666666666667v-1.4375h3.785416666666667l-2.73125 -2.73125 1.00625 -1.00625 3.7375000000000003 3.7375000000000003H9.583333333333334v-1.8687500000000001l-3.7375000000000003 -3.7375000000000003 1.00625 -1.00625 2.73125 2.73125V4.3125h1.4375v3.785416666666667l2.73125 -2.73125 1.00625 1.00625 -3.7375000000000003 3.7375000000000003V11.979166666666668h7.666666666666667v1.4375h-3.785416666666667l2.73125 2.73125 -1.00625 1.00625 -3.7375000000000003 -3.7375000000000003H11.020833333333334v1.8687500000000001l3.7375000000000003 3.7375000000000003 -1.00625 1.00625 -2.73125 -2.73125V21.083333333333336h-1.4375Zm9.104166666666668 -14.614583333333334V1.9166666666666667h1.4375v4.552083333333334h-1.4375Z" stroke-width="1"></path></svg>