<svg xmlns="http://www.w3.org/2000/svg" fill="none" viewBox="0 0 48 48" id="Skull-Outline--Streamline-Ionic-Outline.svg" height="48" width="48"><desc>Skull Outline Streamline Icon: https://streamlinehq.com</desc><path stroke="#000000" stroke-linecap="round" stroke-miterlimit="10" d="M42.0003 21.1552v9.2813c0 1.1992 -0.3594 2.3708 -1.0316 3.3637 -0.6723 0.9929 -1.6266 1.7616 -2.74 2.2069l-2.22 0.8878c-0.4637 0.1858 -0.8735 0.4843 -1.1927 0.8685 -0.319 0.3842 -0.5372 0.842 -0.6345 1.3319l-0.9375 4.7006c-0.0681 0.3405 -0.2523 0.6468 -0.521 0.8666 -0.2688 0.22 -0.6055 0.3398 -0.9527 0.339h-15.54c-0.3468 0.0001 -0.6828 -0.1201 -0.951 -0.3398 -0.2682 -0.2199 -0.4519 -0.5258 -0.52 -0.8658l-0.9403 -4.7006c-0.0978 -0.4894 -0.316 -0.9466 -0.6351 -1.3304 -0.3191 -0.3837 -0.7288 -0.6817 -1.1921 -0.8671l-2.21999 -0.8879c-1.11333 -0.4453 -2.06769 -1.214 -2.73994 -2.2069 -0.67226 -0.9929 -1.03159 -2.1645 -1.03163 -3.3637v-9.4378c0 -9.93 8.04096 -17.98219 17.96726 -18.00001 9.9262 -0.01781 18.0328 8.23591 18.0328 18.15371Z" stroke-width="3"></path><path stroke="#000000" stroke-linecap="round" stroke-miterlimit="10" d="M15.7506 30.0027c2.0713 0 3.7504 -1.6791 3.7504 -3.7504 0 -2.0712 -1.6791 -3.7503 -3.7504 -3.7503 -2.0712 0 -3.7504 1.6791 -3.7504 3.7503 0 2.0713 1.6792 3.7504 3.7504 3.7504Z" stroke-width="3"></path><path stroke="#000000" stroke-linecap="round" stroke-miterlimit="10" d="M32.2506 30.0027c2.0713 0 3.7504 -1.6791 3.7504 -3.7504 0 -2.0712 -1.6791 -3.7503 -3.7504 -3.7503 -2.0712 0 -3.7504 1.6791 -3.7504 3.7503 0 2.0713 1.6792 3.7504 3.7504 3.7504Z" stroke-width="3"></path><path stroke="#000000" stroke-linecap="round" stroke-linejoin="round" d="m23.9998 31.502 -1.5 4.5002h3.0001l-1.5001 -4.5002Z" stroke-width="3"></path><path stroke="#000000" stroke-linecap="round" stroke-linejoin="round" d="M24 42.0015v3.0009" stroke-width="3"></path><path stroke="#000000" stroke-linecap="round" stroke-linejoin="round" d="M19.5002 42.0015v3.0009" stroke-width="3"></path><path stroke="#000000" stroke-linecap="round" stroke-linejoin="round" d="M28.5002 42.0015v3.0009" stroke-width="3"></path></svg>