<svg xmlns="http://www.w3.org/2000/svg" viewBox="-0.5 -0.5 16 16" fill="#000000" id="Tire-Bold--Streamline-Phosphor.svg" height="16" width="16"><desc>Tire Bold Streamline Icon: https://streamlinehq.com</desc><path d="M8.588888671874999 7.5c0 -1.503345703125 0.48727734375000004 -2.722224609375 1.088888671875 -2.722224609375S10.766666015625 5.996654296875 10.766666015625 7.5s-0.48727734375000004 2.722224609375 -1.088888671875 2.722224609375S8.588888671874999 9.003345703125001 8.588888671874999 7.5ZM14.85 14.03333203125c0 0.45101953125 -0.36564843750000003 0.816650390625 -0.8166679687499999 0.8166679687499999H4.5055546875c-1.2590273437500001 0 -2.402361328125 -0.8316386718750001 -3.220388671875 -2.3411132812499997C0.552890625 11.1573046875 0.15 9.378333984375 0.15 7.5s0.402890625 -3.6573046875 1.135166015625 -5.00888671875C2.103193359375 0.981638671875 3.24652734375 0.15 4.5055546875 0.15h4.900001953125c1.2590273437500001 0 2.402361328125 0.8316386718750001 3.220388671875 2.3411132812499997 0.732275390625 1.35158203125 1.135166015625 3.130552734375 1.135166015625 5.00888671875s-0.402890625 3.6573046875 -1.135166015625 5.00888671875c-0.132287109375 0.24522070312500002 -0.28027734375 0.48164062500000004 -0.443044921875 0.707783203125h1.850431640625c0.45101953125 0.000017578125 0.8166679687499999 0.36564843750000003 0.8166679687499999 0.816662109375ZM9.405556640625 1.7833359375c-1.287615234375 0 -2.722224609375 2.347916015625 -2.722224609375 5.7166640625000005s1.4346093750000002 5.7166640625000005 2.722224609375 5.7166640625000005S12.127775390625 10.868748046875 12.127775390625 7.5s-1.4346093750000002 -5.7166640625000005 -2.72221875 -5.7166640625000005ZM1.9419023437500003 9.377654296875l1.270599609375 -0.9085429687500001c0.283810546875 -0.202505859375 0.6648808593750001 -0.202505859375 0.9486914062499999 0l0.997693359375 0.711861328125c-0.073423828125 -0.557302734375 -0.109798828125 -1.118859375 -0.108884765625 -1.68097265625 0 -0.24567773437499998 0.007482421875000001 -0.490001953125 0.021093749999999998 -0.731595703125L3.68888671875 5.78159765625l-1.899427734375 1.356345703125c-0.006123046875 0.11977734375 -0.006123046875 0.24024023437500003 -0.006123046875 0.362056640625 -0.001470703125 0.629291015625 0.0515859375 1.257521484375 0.15856640624999999 1.8776542968749999Zm0.150404296875 -4.463765625000001 1.1201953125 -0.8003320312500001c0.283810546875 -0.20251171874999999 0.6648808593750001 -0.20251171874999999 0.9486914062499999 0l1.150822265625 0.821431640625c0.17312109375 -0.851783203125 0.466423828125 -1.674638671875 0.871107421875 -2.443875 0.13294921875000001 -0.245279296875 0.28161914062500004 -0.48169921875 0.44508398437499996 -0.70777734375H4.5055546875c-0.9228339843750001 0 -1.9212070312500003 1.20662109375 -2.413248046875 3.130552734375Zm2.413248046875 8.302775390625001h2.12265234375c-0.16276171875 -0.22613671875 -0.310751953125 -0.462556640625 -0.4430390625 -0.70777734375 -0.15400195312499998 -0.28420898437500003 -0.290373046875 -0.577634765625 -0.40833398437499996 -0.878595703125L3.68888671875 10.13715234375l-1.283525390625 0.9167109375000001c0.5349140625000001 1.35158203125 1.3434140625000002 2.16280078125 2.100193359375 2.16280078125Z" stroke-width="1"></path></svg>