<svg viewBox="-0.5 -0.5 16 16" fill="none" xmlns="http://www.w3.org/2000/svg" id="Usb--Streamline-Iconoir.svg" height="16" width="16"><desc>Usb Streamline Icon: https://streamlinehq.com</desc><path d="M7.6709375 0.6628125v10.255812500000001" stroke="#000000" stroke-linecap="round" stroke-linejoin="round" stroke-width="1"></path><path d="M7.6709375 8.867437500000001 11.431375 7.5V5.107" stroke="#000000" stroke-linecap="round" stroke-linejoin="round" stroke-width="1"></path><path d="m7.6709375 10.234875 -3.7605 -1.0255625V7.158125" stroke="#000000" stroke-linecap="round" stroke-linejoin="round" stroke-width="1"></path><path d="M7.6709375 14.337187499999999c0.944 0 1.7093125 -0.76525 1.7093125 -1.70925s-0.7653125 -1.7093125 -1.7093125 -1.7093125 -1.7093125 0.76525 -1.7093125 1.70925 0.7653125 1.7093125 1.7093125 1.7093125Z" stroke="#000000" stroke-linecap="round" stroke-linejoin="round" stroke-width="1"></path><path d="M10.4058125 3.0558125v2.0511874999999997h2.0511874999999997V3.0558125h-2.0511874999999997Z" stroke="#000000" stroke-linecap="round" stroke-linejoin="round" stroke-width="1"></path><path d="m6.3035 2.03025 1.3674374999999999 -1.3674374999999999 1.3674374999999999 1.3674374999999999" stroke="#000000" stroke-linecap="round" stroke-linejoin="round" stroke-width="1"></path><path d="M3.9104375000000005 6.81625c0.75525 0 1.3674374999999999 -0.6121875 1.3674374999999999 -1.3674374999999999 0 -0.7551874999999999 -0.6121875 -1.3674374999999999 -1.3674374999999999 -1.3674374999999999s-1.3674374999999999 0.61225 -1.3674374999999999 1.3674374999999999c0 0.75525 0.61225 1.3674374999999999 1.3674374999999999 1.3674374999999999Z" stroke="#000000" stroke-linecap="round" stroke-linejoin="round" stroke-width="1"></path></svg>